PathFileType	4	(X/Y/Z)	 s07c0402.trc
DataRate	CameraRate	NumFrames	NumMarkers	Units	OrigDataRate	OrigDataStartFrame	OrigNumFrames
200	200	4	48	mm	200	1251	2000
Frame#	Time	racr			lacr			c7			jug			rlel			rdr			llel			ldr			s2			lic			ric			lasi			rasi			rpsi			lpsi			rgt			lgt			rth1			rth2			rth3			rth4			rlfc			rmfc			rsh1			rsh2			rsh3			rsh4			rlmal			rcal			rtoe			rmt5			lth1			lth2			lth4			lth3			llfc			lmfc			lsh1			lsh2			lsh3			lsh4			llmal			lcal			ltoe			lmt5			SBIKE			LBIKE			RBIKE			
		X1	Y1	Z1	X2	Y2	Z2	X3	Y3	Z3	X4	Y4	Z4	X5	Y5	Z5	X6	Y6	Z6	X7	Y7	Z7	X8	Y8	Z8	X9	Y9	Z9	X10	Y10	Z10	X11	Y11	Z11	X12	Y12	Z12	X13	Y13	Z13	X14	Y14	Z14	X15	Y15	Z15	X16	Y16	Z16	X17	Y17	Z17	X18	Y18	Z18	X19	Y19	Z19	X20	Y20	Z20	X21	Y21	Z21	X22	Y22	Z22	X23	Y23	Z23	X24	Y24	Z24	X25	Y25	Z25	X26	Y26	Z26	X27	Y27	Z27	X28	Y28	Z28	X29	Y29	Z29	X30	Y30	Z30	X31	Y31	Z31	X32	Y32	Z32	X33	Y33	Z33	X34	Y34	Z34	X35	Y35	Z35	X36	Y36	Z36	X37	Y37	Z37	X38	Y38	Z38	X39	Y39	Z39	X40	Y40	Z40	X41	Y41	Z41	X42	Y42	Z42	X43	Y43	Z43	X44	Y44	Z44	X45	Y45	Z45	X46	Y46	Z46	X47	Y47	Z47	X48	Y48	Z48	
1251	6.2550	834.245135	1377.151559	-85.558554	820.527251	1430.516351	-417.964995	831.656418	1461.662252	-244.865288	774.213277	1321.407114	-266.730178	555.961396	1170.301678	40.195136	697.303890	937.922901	-42.832534	567.607498	1188.623251	-511.574841	700.382832	940.589113	-433.385341	239.254523	1288.949884	-196.128025	382.369729	1345.256093	-343.165287	437.787611	1273.397509	-73.081957	402.861568	1259.852840	-340.687025	438.636255	1217.843278	-94.020383	283.317324	1314.620051	-144.754600	275.340550	1339.964904	-248.923133	345.325215	1150.235067	-37.780209	313.395491	1198.439497	-394.296701	379.095857	996.646703	-50.238093	401.982164	912.757533	-63.480720	385.943393	829.090869	-61.692083	434.287406	916.004297	-80.200451	376.988669	690.978086	-90.848652	354.185844	682.360484	-190.632921	274.778928	592.827360	-59.499210	237.590479	515.194983	-72.508789	163.875420	464.388093	-67.933439	247.373045	506.484869	-112.867823	67.573221	363.776946	-68.686727	-1.429486	388.704767	-100.499949	151.122566	141.412397	-122.849149	79.181621	182.813121	-52.043637	390.270665	1099.577828	-406.711966	468.008041	1058.336659	-414.825020	493.283066	1083.594707	-406.654187	515.147724	982.534580	-415.745140	627.521636	843.490396	-393.486861	620.276134	825.071806	-291.409816	516.299951	744.641845	-408.099969	465.855239	677.130618	-389.279400	384.111117	639.578318	-394.733416	485.886246	661.542193	-340.174658	272.057509	561.839234	-392.464949	188.000698	554.804807	-360.865391	437.548724	409.350850	-354.619926	355.654798	422.292190	-423.214892	-258.984178	972.461111	-233.801221	-75.727069	83.702845	-438.119582	-82.568266	80.090831	-40.531695	
1252	6.2600	834.041925	1376.548789	-87.018966	821.811361	1426.174473	-418.953992	832.363874	1459.714304	-246.511744	773.646124	1319.506993	-266.931460	556.402696	1170.434211	40.515462	697.083010	937.634202	-42.813957	566.100744	1187.336015	-511.411560	700.043316	940.360911	-433.168855	239.205716	1291.298204	-194.546477	379.454591	1347.078793	-350.369775	438.255377	1276.309098	-72.534282	401.591774	1261.349422	-340.327192	439.346421	1220.733561	-93.938327	284.439613	1316.063464	-144.576572	275.045627	1342.119913	-247.640269	347.702648	1151.939567	-36.749527	311.249649	1199.797387	-392.658770	385.788449	998.897322	-50.525094	410.846733	915.786496	-64.880167	397.459186	831.543823	-62.725741	442.371429	919.996533	-82.818303	389.063202	693.646150	-91.870956	366.142630	684.956486	-191.608862	285.566836	597.024270	-60.368731	244.568391	520.232788	-74.389492	171.491982	471.307510	-68.143940	255.929403	511.212751	-113.493547	73.352909	371.595924	-68.343688	4.624164	400.758771	-100.985658	142.272014	144.561696	-122.810614	73.782654	190.766307	-52.267697	386.915336	1099.828284	-405.674180	463.891746	1057.297124	-414.068046	489.640271	1082.145852	-405.994416	509.755769	980.760189	-415.130369	620.311820	839.255244	-393.232967	613.205113	821.200651	-291.468551	510.651994	739.194962	-408.977265	461.511741	669.670684	-389.522200	380.535798	630.378820	-394.313637	481.116959	656.146097	-341.104132	270.762715	549.959382	-391.984440	187.197628	539.371386	-359.694943	442.923327	405.031904	-355.831568	359.987055	414.556558	-423.588338	-258.963256	972.474096	-233.988613	-75.728255	83.729367	-438.145536	-82.534722	80.186587	-40.559881	
1253	6.2650	833.827748	1376.104709	-87.805125	823.084746	1421.841490	-419.670140	833.101955	1457.844333	-247.901747	772.410649	1317.869269	-266.544850	556.713340	1170.431714	40.865975	696.935472	937.500267	-42.722032	564.649898	1186.016273	-511.187985	699.725607	940.089545	-432.753546	239.262946	1293.418184	-192.900022	378.538274	1347.189631	-347.532815	438.789299	1279.139021	-72.276649	400.290402	1262.326583	-339.902962	440.083663	1223.161092	-93.945494	284.642400	1318.211018	-143.487079	274.474076	1344.018971	-245.942523	350.050686	1153.579693	-35.671485	308.951507	1200.701940	-390.991993	392.639643	1001.218616	-50.828882	419.749463	918.987618	-66.373272	408.915264	834.535109	-64.156942	450.551006	924.059796	-85.767637	401.011762	696.546153	-93.040200	378.068660	687.920513	-192.773018	296.091179	601.018800	-61.487615	253.419634	525.200503	-75.369721	179.338162	477.797963	-68.876087	265.307228	515.938006	-113.278724	79.280924	379.212294	-68.388464	11.998470	412.514577	-101.372257	132.523813	147.555264	-124.440041	68.975973	198.889973	-52.391941	383.238978	1099.573330	-404.584293	459.593044	1055.930006	-413.322905	486.523038	1079.997382	-404.847018	504.077785	978.523039	-414.600081	612.944966	834.450467	-392.513218	605.743569	816.963222	-292.026282	504.254301	732.044937	-409.244186	456.941249	661.850223	-389.668879	377.119153	620.071558	-393.004146	476.042571	650.408615	-342.047894	269.845203	537.017358	-391.235085	186.822729	523.837819	-358.595955	447.643417	399.541960	-356.749182	363.820799	405.055505	-422.889536	-258.823096	972.603682	-234.263650	-75.721183	83.739338	-438.153265	-82.525852	80.253596	-40.546126	
1254	6.2700	833.559556	1375.761332	-88.198008	824.302646	1417.539259	-420.140204	833.768351	1456.024077	-249.008185	772.123782	1316.181542	-266.392026	556.992933	1170.365593	41.270176	696.715353	936.954390	-42.370120	563.171924	1184.704125	-510.900352	699.395328	939.862148	-432.279065	239.498978	1295.455416	-191.103406	377.592425	1347.301669	-346.929286	439.332588	1281.623982	-72.048026	398.841229	1262.817527	-339.718839	440.948886	1225.618826	-94.040688	284.841116	1320.194759	-142.447777	273.998170	1345.631953	-244.654366	352.476130	1155.332315	-34.624619	306.517759	1201.119622	-389.366974	399.565034	1003.583070	-51.058721	428.665157	922.396910	-67.786098	420.525296	837.534520	-65.782816	458.574758	928.371611	-87.932988	412.635421	699.681807	-94.408734	389.765138	691.270039	-194.348685	306.168580	604.606314	-62.627695	261.804923	529.762595	-76.558819	186.898933	483.712663	-69.764990	272.112473	520.656598	-116.025880	85.296197	386.483379	-68.927572	19.142119	423.515023	-102.923741	124.250489	152.195495	-124.544722	64.655916	207.479783	-52.850015	379.408131	1098.848107	-403.446914	454.976089	1054.032046	-412.722914	482.297731	1077.723710	-404.563056	498.157339	975.829865	-414.348110	605.301582	829.945890	-392.851891	598.145443	812.454659	-293.099182	497.956479	724.635135	-409.750919	452.592793	650.917299	-384.525827	373.834121	609.457778	-392.470760	470.731371	644.356588	-342.991107	269.266997	523.868048	-390.364765	186.896449	508.483304	-357.606802	451.815631	393.024843	-357.608389	367.492557	396.017678	-423.140828	-258.606615	972.723778	-234.421728	-75.693340	83.834565	-438.221257	-82.479564	80.341672	-40.571320	
